<svg id="Capa_1" fill="#498FEB" data-name="Capa 1" xmlns="http://www.w3.org/2000/svg" viewBox="0 0 89.13 92.6"><title>Logo Vakros</title><path d="M82.18,11.58a.86.86,0,0,0-1.69-.12C79,17.77,75.2,26.79,65.23,30.83a17.23,17.23,0,0,1-5.05,1.28.88.88,0,0,0-.79.65c-4.87,21.11-9,30-12.6,31.93a.79.79,0,0,1-.76,0c-3.61-1.92-7.74-10.82-12.61-31.93a.86.86,0,0,0-.79-.65,17.31,17.31,0,0,1-5.05-1.28c-10-4-13.79-13.06-15.26-19.37a.86.86,0,0,0-1.69.12c-.44,8.63.63,23.31,11.36,32.16a.77.77,0,0,1,.26.42c.86,3.33,10.37,39.16,24.16,38.46,13.78.7,23.29-35.13,"24.15-38.46a.73.73,0,0,1,.27-.42C81.55,34.89,82.62,20.21,82.18,11.58Z"/></svg>