<svg id="Capa_1" data-name="Capa 1" xmlns="http://www.w3.org/2000/svg" fill="white" viewBox="0 0 324.77 132.61"><title>Logo Vakros</title><path d="M91.16,36.48a.86.86,0,0,0-1.69-.13C88,42.67,84.18,51.69,74.21,55.72a17.28,17.28,0,0,1-5,1.29.88.88,0,0,0-.79.65c-4.87,21.1-9,30-12.61,31.93a.77.77,0,0,1-.75,0C51.4,87.67,47.27,78.76,42.4,57.66a.88.88,0,0,0-.79-.65,17.28,17.28,0,0,1-5-1.29c-10-4-13.79-13-15.26-19.37a.86.86,0,0,0-1.69.13c-.44,8.63.63,23.3,11.35,32.16a.74.74,0,0,1,.27.41c.86,3.34,10.37,39.16,24.15,38.46,13.79.7,23.3-35.12,24.16-38.46a.74.74,0,0,1,.27-.41C90.53,59.78,91.6,45.11,91.16,36.48Z"/><path d="M117.73,107.52v-5c-2.72,3.14-7.43,5-12.63,5-6.35,0-13.86-4.19-13.86-12.89,0-9.1,7.51-12.57,13.86-12.57,5.28,0,10,1.69,12.63,4.76V81.58c0-4-3.47-6.53-8.75-6.53a17,17,0,0,0-11.63,4.59l-4-6.84a26.56,26.56,0,0,1,17.42-6.13c9.08,0,17.41,3.55,17.41,14.75v26.1Zm0-10.31V92.38c-1.73-2.26-5-3.39-8.42-3.39-4.12,0-7.51,2.1-7.51,5.88,0,3.63,3.39,5.72,7.51,5.72C112.7,100.59,116,99.47,117.73,97.21Z"/><path d="M165.41,107.53l-11.53-16-4.79,5v11H138.61V52.81h10.48V85l15.1-17.32h12.88L161.31,85.28l17.23,22.26Z"/><path d="M182.76,107.52V67.64h10.48V73A17.27,17.27,0,0,1,206,66.67v10a14.31,14.31,0,0,0-2.89-.24c-3.46,0-8.08,1.94-9.82,4.43v26.69Z"/><path d="M209.91,87.06c0-11,7.93-20.39,21.05-20.39S252.09,76,252.09,87.06s-7.93,20.46-21.13,20.46S209.91,98.18,209.91,87.06Zm31.28,0c0-6-3.71-11.28-10.23-11.28S220.81,81,220.81,87.06,224.44,98.42,231,98.42,241.19,93.18,241.19,87.06Z"/><path d="M306.93,83c-2-.55-6.76-2.81-8-6.55-1.74-5.07-8.77-4.48-8.77-4.48A25.85,25.85,0,0,0,274,66.67c-10.48,0-16.34,5.72-16.34,12.25,0,15.31,23.68,10.07,23.68,16.52,0,2.41-2.14,4.19-6.68,4.19a23.09,23.09,0,0,1-13.78-5.32l-4.54,7.17c4.21,3.79,10.89,6,17.82,6,11.06,0,17.25-5.39,17.25-12.49,0-15.71-23.6-10.87-23.6-16.67,0-2.18,2.47-3.87,6.27-3.87a18,18,0,0,1,10,3,8.83,8.83,0,0,1,2.41,2.74c3.87,6.21,16.52,4.87,20.43,3.07A.14.14,0,0,0,306.93,83Z"/></svg>